<?xml version="1.0" encoding="utf-8"?>
<!-- Generator: Adobe Illustrator 16.0.0, SVG Export Plug-In . SVG Version: 6.00 Build 0)  -->
<!DOCTYPE svg PUBLIC "-//W3C//DTD SVG 1.1//EN" "http://www.w3.org/Graphics/SVG/1.1/DTD/svg11.dtd">
<svg version="1.1" xmlns="http://www.w3.org/2000/svg" xmlns:xlink="http://www.w3.org/1999/xlink" x="0px" y="0px" width="800px"
	 height="140px" viewBox="0 0 800 140" enable-background="new 0 0 800 140" xml:space="preserve">
<g id="grid" display="none">
</g>
<g id="Layer_1">
	<g>
		<path fill="#FF00FF" d="M485.727,31.812c-2.072,2.376-4.813,5.038-8.218,7.993c-3.408,2.964-7.323,5.927-11.766,8.884
			c-4.441,2.961-9.396,5.402-14.875,7.325c-5.482,1.93-11.475,2.886-17.983,2.886c-5.031,0-9.989-0.735-14.876-2.219
			c-4.885-1.479-9.252-3.257-13.094-5.33c-5.93-3.254-12.07-6.215-18.431-8.88c-6.368-2.666-14.138-3.999-23.312-3.999
			c-7.991,0-14.877,2.153-20.65,6.44c-5.773,4.295-10.146,7.771-13.096,10.436c-3.266-4.141-6.371-8.36-9.324-12.656
			c-2.967-4.288-6.074-8.504-9.328-12.654c2.064-2.068,4.727-4.663,7.994-7.773c3.253-3.106,7.168-6.139,11.764-9.101
			c4.585-2.957,9.77-5.475,15.547-7.549c5.773-2.068,12.056-3.109,18.865-3.109c7.696,0,14.434,1.41,20.205,4.219
			c5.774,2.816,11.622,5.851,17.543,9.103c3.841,2.074,7.916,3.851,12.211,5.327c4.283,1.486,8.949,2.222,13.982,2.222
			c9.471,0,17.396-2.067,23.761-6.217c6.362-4.142,11.317-7.84,14.874-11.101L485.727,31.812z M485.727,110.405
			c-2.072,2.377-4.813,5.042-8.218,7.996c-3.408,2.961-7.323,5.925-11.766,8.879c-4.441,2.961-9.396,5.405-14.875,7.327
			c-5.482,1.928-11.475,2.886-17.983,2.886c-5.031,0-9.989-0.738-14.876-2.219c-4.885-1.478-9.252-3.256-13.094-5.33
			c-5.93-3.254-12.07-6.216-18.431-8.879c-6.368-2.665-14.138-3.996-23.312-3.996c-7.991,0-14.877,2.148-20.65,6.436
			c-5.773,4.295-10.146,7.771-13.096,10.436c-3.266-4.143-6.371-8.361-9.324-12.657c-2.967-4.286-6.074-8.503-9.328-12.656
			c2.064-2.067,4.727-4.661,7.994-7.768c3.253-3.11,7.168-6.14,11.764-9.103c4.585-2.958,9.77-5.474,15.547-7.55
			c5.773-2.067,12.056-3.106,18.865-3.106c7.696,0,14.434,1.406,20.205,4.217c5.774,2.816,11.622,5.849,17.543,9.102
			c3.841,2.076,7.916,3.853,12.211,5.33c4.283,1.484,8.949,2.219,13.982,2.219c9.471,0,17.396-2.065,23.761-6.217
			c6.362-4.142,11.317-7.84,14.874-11.101L485.727,110.405z"/>
	</g>
	<g>
		<path fill="#FFFF00" d="M137.468,38.669l17.135,17.133l17.377-17.377l14.44,14.44l-17.378,17.378L186.298,87.5l-14.072,14.075
			l-17.258-17.257l-17.135,17.136l-14.44-14.44l17.136-17.136l-17.135-17.133L137.468,38.669z"/>
	</g>
	<g>
		<path fill="#FFFF00" d="M0,63.809h31.923V76.19H0V63.809z"/>
	</g>
	<g>
		<path fill="#FFFF00" d="M222.806,99.318h-12.551V76.765h24.899l7.456-13.337h-32.355V40.882h44.708l11.76-21.377l15.495,7.843
			l-7.447,13.534h13.725v22.546h-26.087l-7.251,13.337h33.338v22.553h-45.693l-11.567,21.178l-15.691-7.843L222.806,99.318z"/>
	</g>
	<g>
		<path fill="#FFFF00" d="M52.679,63.285h47.004v13.546H52.679V63.285z M68.702,42.907h14.956v13.9H68.702V42.907z M68.702,83.193
			h14.956v13.9H68.702V83.193z"/>
	</g>
	<g>
		<path fill="#FFFF00" d="M662.532,101.332l-17.135-17.134l-17.377,17.377l-14.44-14.44l17.378-17.378L613.7,52.5l14.074-14.075
			l17.257,17.258l17.136-17.135l14.441,14.44l-17.136,17.135l17.133,17.133L662.532,101.332z"/>
	</g>
	<g>
		<path fill="#FFFF00" d="M800,76.192h-31.923V63.81H800V76.192z"/>
	</g>
	<g>
		<path fill="#FFFF00" d="M577.193,40.683h12.551v22.552h-24.898l-7.454,13.337h32.353v22.546h-44.707l-11.761,21.377l-15.495-7.843
			l7.448-13.534h-13.724V76.572h26.085l7.253-13.337h-33.338V40.683h45.691l11.568-21.178l15.691,7.843L577.193,40.683z"/>
	</g>
	<g>
		<path fill="#FFFF00" d="M747.321,76.715h-47.006V63.169h47.006V76.715z M731.298,97.094h-14.956v-13.9h14.956V97.094z
			 M731.298,56.808h-14.956v-13.9h14.956V56.808z"/>
	</g>
</g>
</svg>
