<?xml version="1.0" encoding="utf-8"?>
<!-- Generator: Adobe Illustrator 16.0.0, SVG Export Plug-In . SVG Version: 6.00 Build 0)  -->
<!DOCTYPE svg PUBLIC "-//W3C//DTD SVG 1.1//EN" "http://www.w3.org/Graphics/SVG/1.1/DTD/svg11.dtd">
<svg version="1.1" xmlns="http://www.w3.org/2000/svg" xmlns:xlink="http://www.w3.org/1999/xlink" x="0px" y="0px" width="16px"
	 height="12.337px" viewBox="0 0 16 12.337" enable-background="new 0 0 16 12.337" xml:space="preserve">
<g id="grid" display="none">
</g>
<g id="kader">
</g>
<g id="inhoud">
	<g>
		<path fill="#FF00FF" d="M16.002,2.681c-0.188,0.217-0.441,0.461-0.751,0.73c-0.312,0.271-0.671,0.543-1.077,0.812
			c-0.405,0.271-0.859,0.495-1.359,0.67c-0.502,0.177-1.05,0.264-1.646,0.264c-0.46,0-0.915-0.066-1.36-0.202
			C9.361,4.82,8.962,4.657,8.61,4.468C8.068,4.17,7.507,3.899,6.925,3.655C6.342,3.411,5.631,3.29,4.793,3.29
			c-0.73,0-1.361,0.197-1.889,0.589C2.377,4.271,1.977,4.59,1.706,4.833C1.408,4.454,1.123,4.068,0.853,3.675
			C0.583,3.283,0.297,2.897,0,2.519C0.189,2.33,0.434,2.092,0.73,1.808c0.299-0.284,0.656-0.562,1.077-0.833
			c0.419-0.27,0.894-0.499,1.423-0.69C3.757,0.096,4.332,0,4.955,0c0.704,0,1.32,0.129,1.848,0.386
			C7.33,0.644,7.865,0.921,8.408,1.219c0.35,0.189,0.723,0.352,1.116,0.487c0.392,0.136,0.819,0.203,1.279,0.203
			c0.866,0,1.59-0.189,2.172-0.569c0.583-0.378,1.037-0.717,1.36-1.015L16.002,2.681z M16.002,9.869
			c-0.188,0.217-0.441,0.46-0.751,0.73c-0.312,0.271-0.671,0.543-1.077,0.812c-0.405,0.271-0.859,0.494-1.359,0.671
			c-0.502,0.177-1.05,0.264-1.646,0.264c-0.46,0-0.915-0.067-1.36-0.203c-0.447-0.136-0.847-0.297-1.198-0.487
			c-0.542-0.296-1.104-0.569-1.686-0.812c-0.583-0.245-1.294-0.367-2.132-0.367c-0.73,0-1.361,0.197-1.889,0.59
			c-0.527,0.395-0.928,0.711-1.198,0.954c-0.298-0.379-0.583-0.765-0.854-1.157C0.583,10.472,0.297,10.086,0,9.707
			c0.189-0.19,0.434-0.427,0.73-0.711c0.299-0.284,0.656-0.562,1.077-0.833C2.227,7.893,2.701,7.662,3.23,7.475
			c0.526-0.19,1.102-0.286,1.725-0.286c0.704,0,1.32,0.129,1.848,0.387s1.062,0.534,1.605,0.831c0.35,0.19,0.723,0.353,1.116,0.488
			c0.392,0.136,0.819,0.203,1.279,0.203c0.866,0,1.59-0.188,2.172-0.569c0.583-0.379,1.037-0.717,1.36-1.015L16.002,9.869z"/>
	</g>
</g>
</svg>
