<?xml version="1.0" standalone="no"?>
<!DOCTYPE svg PUBLIC "-//W3C//DTD SVG 20010904//EN"
 "http://www.w3.org/TR/2001/REC-SVG-20010904/DTD/svg10.dtd">
<svg version="1.0" xmlns="http://www.w3.org/2000/svg"
 width="1024.000000pt" height="1024.000000pt" viewBox="0 0 1024.000000 1024.000000"
 preserveAspectRatio="xMidYMid meet">
<metadata>
Created by potrace 1.11, written by Peter Selinger 2001-2013
</metadata>
<g transform="translate(0.000000,1024.000000) scale(0.100000,-0.100000)"
fill="#000000" stroke="none">
<path d="M2845 9056 c-438 -43 -794 -149 -1262 -376 -324 -157 -640 -362 -931
-604 -78 -65 -632 -592 -646 -614 -2 -4 47 -75 111 -157 63 -83 243 -330 401
-550 219 -307 473 -653 568 -774 4 -5 29 15 180 142 149 125 500 397 624 484
257 178 502 276 825 330 137 22 630 26 820 5 307 -33 584 -95 810 -179 216
-81 669 -291 995 -463 381 -201 510 -259 793 -356 352 -121 661 -173 1022
-174 423 0 780 64 1160 210 150 57 372 160 502 232 215 119 590 381 826 576
262 217 605 550 591 574 -12 19 -1045 1481 -1054 1491 -3 4 -42 -23 -86 -61
-234 -202 -649 -499 -899 -644 -330 -192 -778 -297 -1266 -298 -358 0 -620 47
-949 170 -267 101 -436 181 -890 425 -363 195 -808 415 -925 457 -194 71 -363
112 -585 143 -160 22 -557 28 -735 11z"/>
<path d="M2965 4459 c-422 -20 -811 -121 -1275 -329 -347 -155 -727 -397
-1052 -669 -156 -131 -639 -601 -631 -614 4 -7 70 -95 148 -197 78 -102 191
-255 251 -340 326 -458 443 -620 554 -765 67 -88 126 -161 131 -163 5 -2 42
25 82 60 163 143 596 480 758 590 191 130 443 235 682 282 203 41 327 50 586
43 466 -12 837 -78 1166 -206 257 -100 645 -281 1021 -479 290 -152 390 -198
584 -272 457 -172 756 -230 1195 -230 531 0 895 82 1413 319 255 116 513 276
841 521 264 198 582 477 744 655 l78 85 -528 747 c-290 410 -532 748 -538 750
-5 1 -55 -36 -110 -83 -261 -224 -750 -562 -976 -673 -295 -146 -610 -221
-1010 -240 -399 -19 -733 29 -1066 153 -283 105 -438 178 -868 408 -382 204
-819 423 -943 472 -257 103 -535 159 -867 176 -99 5 -189 9 -200 8 -11 -1 -87
-4 -170 -9z"/>
</g>
</svg>
